<svg xmlns="http://www.w3.org/2000/svg" width="260" height="260" viewBox="0 0 260 260"><defs><pattern id="paper-grain" width="12" height="12" patternUnits="userSpaceOnUse"><rect width="12" height="12" fill="#F5F0E6"/><circle cx="2" cy="3" r=".6" fill="#7B5E3C" opacity=".13"/><circle cx="8" cy="7" r=".45" fill="#7B5E3C" opacity=".10"/></pattern></defs><rect x="0" y="0" width="260" height="260" rx="0" fill="url(#paper-grain)" /><circle cx="130" cy="130" r="108" fill="#FFF9EF" stroke="#111111" stroke-width="3"/><circle cx="130" cy="130" r="82" fill="none" stroke="#2A211A" stroke-width="1.5"/><g transform="translate(90,95)" stroke="#111111" stroke-width="2.4" fill="none" stroke-linecap="round" stroke-linejoin="round">
      <path d="M0 22.5 C17.6 0 62.400000000000006 0 80 22.5 C62.400000000000006 45 17.6 45 0 22.5Z" fill="#FFF9EF"/>
      <circle cx="40.0" cy="22.5" r="13.049999999999999" fill="#8B3A1A" stroke="#111111"/>
      <circle cx="40.0" cy="22.5" r="5.3999999999999995" fill="#111111"/>
      <path d="M40.0 -12 V-34 M40.0 57 V79 M-18 22.5 H-40 M98 22.5 H120"/>
    </g><text x="130" y="52" font-family="DM Sans" font-size="15" font-weight="800" fill="#111111" text-anchor="middle" >MNEMOSYNE VIVA</text><text x="130" y="216" font-family="DM Sans" font-size="12" font-weight="800" fill="#8B3A1A" text-anchor="middle" >ARQUIVO · ATLAS · MÉTODO</text></svg>